<?xml version="1.0" standalone="no"?><!DOCTYPE svg PUBLIC "-//W3C//DTD SVG 1.1//EN" "http://www.w3.org/Graphics/SVG/1.1/DTD/svg11.dtd"><svg t="1576167635402" class="icon" viewBox="0 0 3041 1024" version="1.1" xmlns="http://www.w3.org/2000/svg" p-id="36541" data-spm-anchor-id="a313x.7781069.0.i15" xmlns:xlink="http://www.w3.org/1999/xlink" width="380.125" height="128"><defs><style type="text/css"></style></defs><path d="M982.792182 629.308798c-3.973753 0-7.922218 0.765851-11.606971 2.257815v-0.0289l-0.140887 0.065025-0.133663 0.0578-281.695731 113.237508-281.706569-113.241121a1.022338 1.022338 0 0 0-0.13005-0.0578l-0.133663-0.065025-0.010837 0.025288a31.038623 31.038623 0 0 0-11.610584-2.254202c-16.769237 0-30.37031 13.210922-30.370309 29.503309 0 12.296959 7.766881 22.816567 18.770563 27.241882v0.021675l293.302703 117.904862c0.050575 0.021675 0.0867 0.0289 0.137275 0.046962l0.126437 0.046963v-0.003613a30.959148 30.959148 0 0 0 11.625034 2.254202 30.814648 30.814648 0 0 0 11.599746-2.254202l0.010837 0.003613 0.13005-0.046963c0.04335-0.018063 0.097538-0.025288 0.144501-0.046962l293.309927-117.904862-0.010838-0.021675c11.014521-4.425316 18.766951-14.944923 18.766952-27.241882-0.003613-16.288774-13.604685-29.499697-30.373923-29.499697m0-127.846468a30.923023 30.923023 0 0 0-11.606971 2.257814v-0.010838l-0.140887 0.0578-0.133663 0.054188-281.695731 113.230283-281.706569-113.230283a0.993438 0.993438 0 0 0-0.13005-0.054188l-0.133663-0.0578-0.010837 0.010838a30.915798 30.915798 0 0 0-11.603359-2.254202c-16.776462 0-30.377535 13.20731-30.377534 29.503309 0 12.296959 7.766881 22.816567 18.770563 27.245495v0.021675l293.306315 117.897637c0.046963 0.010838 0.083088 0.0289 0.133663 0.050575l0.13005 0.054187a30.923023 30.923023 0 0 0 11.621421 2.239752 30.829098 30.829098 0 0 0 11.599746-2.239752H700.825513l0.13005-0.054187a0.686376 0.686376 0 0 1 0.144501-0.050575l293.309927-117.897637-0.010838-0.021675c11.014521-4.428928 18.766951-14.948536 18.766952-27.23827-0.003613-16.303224-13.604685-29.514147-30.373923-29.514146m-598.768701-71.097665v0.010838l293.306315 117.912086 0.133663 0.054188 0.13005 0.046962v-0.007225a31.067523 31.067523 0 0 0 11.621421 2.243364 30.973598 30.973598 0 0 0 11.599746-2.243364l0.007225 0.007225 0.13005-0.046962 0.1445-0.054188 293.309927-117.912086-0.010837-0.010838c11.014521-4.425316 18.766951-14.948536 18.766951-27.25272 0-12.289734-7.752431-22.809342-18.766951-27.241882l0.010837-0.007225-293.309927-117.908474a1.119876 1.119876 0 0 1-0.1445-0.046963l-0.126438-0.054187-0.007225 0.003612a31.12171 31.12171 0 0 0-23.221167 0v-0.003612l-0.13005 0.0578c-0.046963 0.018063-0.0867 0.036125-0.133662 0.046962l-293.306315 117.908474v0.01445c-11.003683 4.425316-18.770564 14.944923-18.770564 27.234658-0.003613 12.304184 7.763268 22.823792 18.766951 27.249107M1102.82842 541.120384l9.385282-55.068991V345.290228l207.437127-7.904156v15.804699l-187.68035 7.904156v34.076737h195.089593v16.790913h-195.089593v73.590291l-9.385282 55.563903h-19.756777z m58.771806-93.097806h153.603612v91.125379h-153.603612V448.022578z m19.756777 19.753165v54.819727H1295.443449V464.81349h-114.086446v2.962253zM1557.212616 359.118888l23.708854 47.414097h-218.299922l35.557864-69.638213h22.719029l-25.681282 53.342214h154.094913l-15.309786-31.114485h23.21033z m13.82866 179.039244h-200.027884v-109.397418h200.027884v109.397418z m-180.76602-16.053962h161.504156v-77.047457h-161.504156v77.047457zM1701.427334 375.913413h-21.732816l-12.347534-15.309786h-24.695068l-9.876583 15.309786h-20.248077l24.695068-39.018641h19.756777l-6.91433 9.876582h70.628039v13.82866h-31.609398l12.343922 15.313399z m128.413631 32.100698h-18.766951v-8.890369h-177.308855v8.890369h-18.766951v-22.719029h98.780272l-3.952078-9.385282h20.248078l4.443378 9.385282h95.323107v22.719029z m-8.395456 8.890369v50.871263h-181.755846v18.766951h184.223185v52.601651h-203.979962v-122.239865h201.512623z m-181.752233 13.82866v22.224117h161.999069v-22.224117h-161.999069z m0 94.828195h164.466408v-25.189981h-164.466408v25.189981z m173.356777-149.647922h-21.237903l-12.347534-15.309786h-24.695068l-6.419417 11.36132h-19.756777l20.248077-35.066563h18.766951l-5.928117 9.876582h71.122952v13.828661h-32.104311l12.351147 15.309786zM1864.907528 518.647005l22.71903-8.395456v-75.071418h-21.732816v-16.299612h21.732816v-60.256544h-22.71903v-16.299612h63.71371v16.299612h-21.237903v60.256544h21.237903v16.299612h-21.237903v68.157088l22.224116-8.395456v17.285825l-64.699923 23.954505v-17.535088z m88.408778-67.167262V340.84685h129.399844v110.632893h-54.82334v28.152233h50.871263v16.299612h-50.871263v29.138447h60.256544v16.050349h-141.747378v-16.050349h61.73767v-29.138447H1957.759684v-16.299612h50.376349v-28.152233H1953.316306z m19.756777-63.713709h35.066563v-31.114485h-35.066563v31.114485z m0 47.414097h35.066563v-31.609398h-35.066563v31.609398z m89.889903-78.528582h-35.066563v31.114485h35.066563v-31.114485z m0 46.919184h-35.066563v31.609398h35.066563v-31.609398zM2190.881705 525.070035h33.585437v-49.885049h-101.247612v-12.347535l123.966641-50.871262h-122.980428v-16.299612h17.285825l31.609399-37.042602-48.895224 1.976039v-15.309786l207.437127-6.419417v15.309786l-134.833049 4.443378-31.114485 37.042602h119.02835l45.932971-18.766951v18.275651l-155.084739 63.713709h135.327962l-6.419417-19.261864h20.74299l10.866408 35.561476h-91.865942v65.935398h-45.932971l-7.409243-16.053961z m-40.499768-28.152234h21.732816l-26.176194 44.202583h-21.732816l26.176194-44.202583z m129.894758 0h22.719029l28.152233 44.202583h-22.719029l-28.152233-44.202583zM2416.59087 398.137529l12.347534-17.780738h22.224116l-49.885049 74.085204h43.46202v16.790913h-78.037283l40.004855-56.304467H2367.200734l36.052776-78.037282h20.74299l-28.647146 61.242758h21.241516z m-46.919184 119.523263l74.580117-19.756777v18.275651l-74.580117 19.016213v-17.535087z m80.504621 23.459592l39.018641-97.544797h-39.513554l32.104311-78.037282h-26.671107v-16.790912h58.775418l-5.928117-11.852621h21.237903l6.419418 11.852621h55.809553v16.790912h-88.900078l-25.681281 61.242758h91.37103l-10.371496-30.128272h20.248078l16.299612 46.919184h-35.066563v80.999534h15.804699l10.371495-23.708855 13.333747 15.804699-10.371495 24.449418h-48.895223v-97.544796h-30.128273l-39.513553 97.544796h-19.753165z" fill="#1890ff" p-id="36542" data-spm-anchor-id="a313x.7781069.0.i14" class=""></path><path d="M1212.088563 735.762026h-13.88646l-9.822395-47.414097H1129.448952l-9.822394 47.414097h-13.20731l23.708855-125.646454h57.236492l24.723968 125.646454z m-82.296423-59.266718h56.896917l-10.497933-54.86669h-36.237014l-10.16197 54.86669zM1320.463642 735.762026H1239.521908v-87.379214H1306.580794v-19.984364h13.886461v107.363578z m-65.36101-12.192196H1306.584407v-63.330784h-53.172426v63.330784h1.690651zM1462.705934 735.762026h-13.546885v-75.526592h-36.919777v75.526592h-13.546885v-75.526592h-36.580202v75.52298h-13.546885v-87.379214h114.133409v87.382826zM1488.109052 648.382812h27.772921v87.379214h-13.88646v-75.52298H1488.109052v-11.856234z m27.769308-17.946913h-13.88646v-13.88646h13.88646v13.88646zM1632.721146 735.762026h-13.546885v-75.526592h-51.821351v75.526592h-13.546884v-87.379214h78.911507v87.379214zM1658.460227 648.382812h27.772921v87.379214h-13.886461v-75.52298H1658.460227v-11.856234z m27.769308-17.946913h-13.88646v-13.88646h13.88646v13.88646zM1807.815537 735.762026h-83.651112v-11.852621H1793.929076v-26.754194H1724.164425v-48.768786h82.975574v11.852621h-69.089114v25.063543h69.768264v50.459437zM1826.102025 648.382812H1839.988485V626.704184h13.546885V648.382812h35.901051v11.852622h-35.901051V723.56983H1888.760883v12.192196h-48.768785v-75.52298H1826.105637v-11.856234zM1969.699005 660.239046h-41.655768v75.52298h-13.88646v-87.379214h55.542228v11.856234zM2067.915727 735.762026h-80.266196V685.978127h66.379736v-25.739081h-53.512002v-11.852621h67.39485v87.375601z m-64.689085-11.852621h50.802625v-26.082269H2001.192803v26.082269h2.033839zM2086.202215 648.382812H2100.088676V626.704184h13.546885V648.382812h35.901051v11.852622h-35.901051V723.56983H2148.861074v12.192196h-48.768786v-75.52298H2086.205828v-11.856234zM2170.872052 648.382812h27.772921v87.379214h-13.88646v-75.52298H2170.872052v-11.856234z m27.769308-17.946913h-13.88646v-13.88646h13.88646v13.88646zM2317.514372 735.762026H2236.572638v-87.379214h80.941734v87.379214z m-65.700585-12.192196h52.157313v-63.334396H2250.119523v63.330783h1.694264zM2425.553489 735.762026h-13.546885v-75.526592h-51.82135v75.526592h-13.546885v-87.379214h78.911508v87.379214z" fill="#2c2c2c" p-id="36543" data-spm-anchor-id="a313x.7781069.0.i18" class=""></path></svg>