<?xml version="1.0" standalone="no"?><!DOCTYPE svg PUBLIC "-//W3C//DTD SVG 1.1//EN" "http://www.w3.org/Graphics/SVG/1.1/DTD/svg11.dtd"><svg t="1576167743908" class="icon" viewBox="0 0 1024 1024" version="1.1" xmlns="http://www.w3.org/2000/svg" p-id="39444" width="32" height="32" xmlns:xlink="http://www.w3.org/1999/xlink"><defs><style type="text/css"></style></defs><path d="M918.34 645.48c-5.5 0-10.96 1.06-16.06 3.12v-0.04l-0.2 0.08c-0.06 0.03-0.13 0.05-0.19 0.07L512.2 805.38 122.49 648.72c-0.06-0.03-0.12-0.06-0.18-0.07l-0.18-0.08-0.01 0.03a43.347 43.347 0 0 0-16.06-3.12c-23.19 0-42.01 18.28-42.01 40.81 0 17.02 10.74 31.57 25.97 37.69v0.02l405.76 163.11c0.07 0.03 0.12 0.04 0.19 0.06l0.18 0.06a42.815 42.815 0 0 0 16.08 3.12c5.5 0 10.95-1.06 16.05-3.12h0.01l0.18-0.06c0.06-0.02 0.13-0.04 0.19-0.06L934.41 724l-0.02-0.03c15.23-6.12 25.96-20.67 25.96-37.69 0-22.53-18.82-40.8-42.01-40.8" p-id="39445" fill="#1890ff"></path><path d="M918.34 468.61c-5.5 0-10.96 1.06-16.06 3.12v-0.01l-0.2 0.07c-0.06 0.02-0.12 0.06-0.19 0.07L512.2 628.51 122.49 471.87c-0.06-0.03-0.12-0.05-0.18-0.07l-0.18-0.07-0.01 0.01a42.859 42.859 0 0 0-16.05-3.12c-23.21 0-42.02 18.27-42.02 40.81 0 17.02 10.74 31.57 25.97 37.69v0.03l405.76 163.1c0.06 0.02 0.11 0.04 0.18 0.07l0.18 0.07a42.954 42.954 0 0 0 16.08 3.1c5.5 0.01 10.95-1.04 16.05-3.1h0.01l0.18-0.07c0.06-0.03 0.13-0.05 0.19-0.07l405.77-163.1-0.02-0.03c15.23-6.12 25.96-20.68 25.96-37.68-0.01-22.56-18.83-40.83-42.02-40.83" p-id="39446" fill="#1890ff"></path><path d="M89.99 370.26v0.02L495.75 533.4c0.07 0.03 0.11 0.05 0.19 0.07l0.18 0.07v-0.02a43.162 43.162 0 0 0 16.08 3.11c5.5 0 10.95-1.05 16.05-3.11l0.01 0.02 0.18-0.07 0.2-0.07L934.4 370.27l-0.01-0.02c15.23-6.12 25.96-20.68 25.96-37.7 0-17-10.72-31.55-25.96-37.68l0.01-0.01-405.76-163.12-0.2-0.06-0.18-0.08h-0.01a43.016 43.016 0 0 0-32.13 0l-0.18 0.08c-0.07 0.02-0.12 0.05-0.19 0.06L89.99 294.86v0.02c-15.22 6.12-25.97 20.68-25.97 37.67 0.01 17.03 10.75 31.58 25.97 37.71" p-id="39447" fill="#1890ff"></path></svg>